<svg xmlns="http://www.w3.org/2000/svg" xmlns:xlink="http://www.w3.org/1999/xlink" viewBox="0 0 595.28 239.51"><defs><style>.cls-1{fill:#fff;}.cls-2{fill:url(#Degradado_sin_nombre_252);}</style><linearGradient id="Degradado_sin_nombre_252" x1="244.73" y1="117.47" x2="595.28" y2="117.47" gradientUnits="userSpaceOnUse"><stop offset="0" stop-color="#e6007e"/><stop offset="0.13" stop-color="#b70d80"/><stop offset="0.28" stop-color="#8b1a82"/><stop offset="0.42" stop-color="#662484"/><stop offset="0.57" stop-color="#4a2c85"/><stop offset="0.71" stop-color="#363186"/><stop offset="0.86" stop-color="#2a3587"/><stop offset="1" stop-color="#263687"/></linearGradient></defs><g id="Capa_2" data-name="Capa 2"><g id="Capa_1-2" data-name="Capa 1"><rect class="cls-1" y="0.36" width="595.28" height="239.14"/><path class="cls-2" d="M595.28,226.94V.36H279a19.26,19.26,0,0,0-7.43,0c-16.21,3.32-22.54,28.24-24,34-2.37,9.33-5,19.62,0,30.86.87,2,6.37,13.89,18.86,18.86,16.79,6.69,26.06-7.23,52-5.14,6.87.55,25.51,2,30.86,13.71,4.81,10.51-3.64,23.89-5.15,26.29-6.43,10.19-12.31,9.33-20,18.85-.7.88-13.71,17.41-10.28,33.72,3.2,15.26,19.29,23.18,35.43,30.85,21.37,10.16,42.47,14.53,67.42,16.58,27.67,2.26,41.3.14,82.86-1.72,35.09-1.57,52.47-11.91,73.14-1.71a62.66,62.66,0,0,1,22.57,19.43"/></g></g></svg>