<svg xmlns="http://www.w3.org/2000/svg" xmlns:xlink="http://www.w3.org/1999/xlink" viewBox="0 0 350.54 234.94"><defs><style>.cls-1{fill:url(#Degradado_sin_nombre_193);}</style><linearGradient id="Degradado_sin_nombre_193" y1="117.47" x2="350.54" y2="117.47" gradientUnits="userSpaceOnUse"><stop offset="0" stop-color="#e6007e"/><stop offset="1" stop-color="#263687"/></linearGradient></defs><g id="Capa_2" data-name="Capa 2"><g id="Capa_1-2" data-name="Capa 1"><path class="cls-1" d="M350.54,226.94V.36H34.27a19.27,19.27,0,0,0-7.43,0c-16.21,3.32-22.54,28.24-24,34-2.37,9.33-5,19.62,0,30.86.87,2,6.37,13.89,18.85,18.86,16.8,6.69,26.07-7.23,52-5.14,6.87.55,25.52,2,30.86,13.71,4.82,10.51-3.63,23.89-5.14,26.29-6.44,10.19-12.32,9.33-20,18.85-.71.88-13.71,17.41-10.29,33.72,3.21,15.26,19.29,23.18,35.43,30.85C125.93,212.52,147,216.89,172,218.94c27.67,2.26,41.29.14,82.86-1.72,35.09-1.57,52.47-11.91,73.14-1.71a62.61,62.61,0,0,1,22.56,19.43"/></g></g></svg>